<?xml version="1.0" encoding="UTF-8"?>
<svg id="a" data-name="Layer 1" xmlns="http://www.w3.org/2000/svg" viewBox="0 0 1700 1700" style="background-color:white">
  <defs>
    <style>
      .b {
        fill: #e60101;
      }

      .c {
        fill: #10397e;
      }
    </style>
  </defs>
  <path class="b" d="m1677.04,1459.67c-1.1.48-.99,1.53-1.11,2.45-1.83,12.97-6.71,24.73-15.02,34.8-7.17,8.69-15.47,16.22-26.49,19.94-7.32,2.47-14.84,3.92-22.57,3.92-43.03.04-86.05.02-129.08.02-2.88,0-5.76.01-8.64-.02-.95-.01-1.93-.04-2.85-.25-2.16-.5-3.2-1.73-3.46-4.02-.11-.95-.1-1.92-.1-2.87,0-12.96,0-25.91,0-38.87,0-1.12-.02-2.25.14-3.35.31-2.17,1.56-3.51,3.72-3.75,1.9-.21,3.83-.16,5.75-.16,39.35,0,78.7,0,118.04,0,1.92,0,3.84-.07,5.76,0,6.01.23,10.7-2.44,13.75-7.3,5.93-9.45,6.87-19.51,1.85-29.69-3.01-6.08-8.2-9.23-15.01-9.49-3.35-.13-6.72-.05-10.08-.05-23.51,0-47.03.01-70.54,0-11.79,0-22.68-3.32-32.89-9.08-.7-.39-1.44-.75-2.03-1.28-7.87-7.03-15.95-13.88-20.52-23.77-.87-1.89-1.81-3.75-2.79-5.58-3.61-6.72-5.18-13.99-6.38-21.47-.89-5.58-1-11.14-.95-16.73.12-11.99,2.84-23.42,7.81-34.3,1.26-2.76,2.65-5.47,4.21-8.07,5.88-9.79,13.86-17.51,23.68-23.29,5.15-3.03,10.86-4.64,16.62-6,5.78-1.36,11.65-1.7,17.61-1.69,43.19.08,86.37.04,129.56.05,1.92,0,3.85-.07,5.75.09,2.53.21,4.09,1.65,4.58,4.15.21,1.09.2,2.23.2,3.34.01,12.64-.07,25.27.05,37.91.04,4.86-.96,7.37-7.37,7.35-35.67-.09-71.34-.04-107.01-.04-6.56,0-13.12-.05-19.67.07-6.06.11-10.91,2.84-13.92,7.99-1.91,3.27-3.31,6.95-3.9,10.77-1.02,6.61.36,12.78,4.17,18.26,3.35,4.82,8.36,6.76,14.03,7.14,2.07.14,4.16.06,6.24.06,24.95,0,49.9-.02,74.86.01,12.85.02,24.64,3.64,34.99,11.29,5.27,3.89,9.83,8.67,13.85,13.87,7.61,9.84,11.69,21.19,13.97,33.28.29,1.56.21,3.22,1.18,4.6v29.76Z"/>
  <path class="b" d="m1271.9,423.29c-1.54-.69-2.54-1.9-3.41-3.22-1.57-2.4-3.1-4.84-4.64-7.26-.17-.27-.22-.65-.44-.84-4.07-3.67-6.26-8.85-10.16-12.65-1.95-1.9-3.55-4-4.97-6.38-1.95-3.26-4.29-6.43-7.01-9.07-5.64-5.46-10.43-11.68-15.98-17.2-1.47-1.47-2.9-2.96-4.64-4.15-1.04-.71-2.16-1.56-2.76-2.62-2.86-5.07-7.91-7.83-12.01-11.56-1.52-1.39-3.2-2.63-4.66-4.11-2.92-2.96-5.87-5.87-9.19-8.41-4.7-3.58-9.43-7.16-13.44-11.55-.32-.35-.66-.74-1.08-.95-4.04-2.04-7.1-5.41-10.78-7.94-2.1-1.44-3.95-3.24-5.99-4.77-5.63-4.23-11.65-7.87-17.61-11.59-1.35-.84-2.68-1.75-3.9-2.76-2.23-1.84-4.72-3.26-7.19-4.74-7.67-4.61-15.95-8.13-23.33-13.25-1.56-1.08-3.3-2.01-5.09-2.65-3.82-1.36-7.17-3.53-10.51-5.7-2.3-1.49-4.62-2.84-7.21-3.73-3.33-1.15-6.54-2.58-9.64-4.27-.7-.38-1.41-.79-2.17-1.01-7.89-2.22-15.02-6.33-22.69-9.08-7.96-2.86-15.99-5.56-24.07-8.05-3.05-.94-6.08-1.89-9.09-2.94-10.28-3.6-20.82-6.16-31.61-7.74-2.21-.32-4.47-.58-6.59-1.25-9.23-2.9-18.82-3.52-28.33-4.61-6.03-.69-12.08-1.24-18.09-2.12-7.13-1.05-14.29-1.58-21.49-1.75-5.27-.12-10.54-.08-15.82-.53-3.49-.3-7.03-.26-10.54.19-1.58.2-3.19.23-4.79.24-9.12.08-18.19.83-27.25,1.89-6.5.76-13.04,1.27-19.56,1.88-11.94,1.12-23.81,2.6-35.49,5.45-4.81,1.17-9.7,1.96-14.55,2.99-1.56.33-3.09.81-4.61,1.3-8.97,2.88-17.93,5.77-27.06,8.15-7.56,1.98-14.97,4.57-22.36,7.13-3.76,1.31-7.34,3.16-11,4.75-1.17.51-2.33,1.08-3.55,1.45-6.75,2.05-12.9,5.57-19.5,8-1.34.49-2.65,1.17-3.81,1.99-4.45,3.17-9.32,5.54-14.27,7.81-2.75,1.26-5.27,2.99-7.92,4.48-6.41,3.6-12.79,7.24-19.5,10.28-3.06,1.38-5.7,3.52-8.34,5.61-1,.79-1.97,1.67-3.09,2.24-7.17,3.64-13.47,8.56-19.81,13.39-4.95,3.77-9.71,7.79-14.82,11.37-1.42,1-2.64,2.32-3.87,3.57-3.6,3.64-7.4,7.05-11.58,10.02-.39.28-.81.54-1.13.89-7.45,8.15-16.52,14.57-24.05,22.69-5.64,6.09-11.51,11.99-17.1,18.14-3.12,3.43-6.24,6.86-8.9,10.67-.45.65-.89,1.36-1.48,1.86-5.34,4.5-8.97,10.37-12.88,16.01-1.65,2.37-3.44,4.61-5.35,6.76-1.16,1.31-2.39,2.63-3.24,4.14-1.8,3.21-3.97,6.18-5.87,9.3-2.58,4.24-5.49,8.24-8.27,12.33-.72,1.06-1.5,2.11-1.99,3.27-3.74,8.85-8.5,17.15-13.54,25.3-.25.41-.48.83-.68,1.27-2.95,6.38-5.9,12.75-8.83,19.14-1.26,2.75-2.53,5.45-4.38,7.93-2.39,3.21-3.58,7.09-5.03,10.83-3.92,10.12-6.29,20.78-11.08,30.6-2.38,4.9-3.64,10.23-4.84,15.54-.38,1.71-.66,3.49-1.35,5.08-2.98,6.83-4.06,14.1-5.21,21.36-.18,1.1-.34,2.22-.67,3.28-2.59,8.43-4.04,17.11-5.51,25.76-1.1,6.45-1.76,12.98-2.41,19.5-.6,6.04-.9,12.12-1.35,18.17-.52,7.01-1.27,14.01-1.57,21.03-.4,9.74-.62,19.5.21,29.24.1,1.11.2,2.23.23,3.35.21,7.84,1.27,15.61,1.78,23.42.54,8.3,1.62,16.54,2.26,24.83.36,4.64,1.08,9.19,2.16,13.71,1.59,6.68,2.68,13.48,4.65,20.08.49,1.65.48,3.47.59,5.22.14,2.19-.87,3.68-2.98,4.35-4.42,1.41-8.77,3.08-13.27,4.14-6.37,1.5-12.8,2.74-19.1,4.59-5.05,1.48-10.29,2.27-15.4,3.55-6.2,1.55-12.41,3.09-18.5,5.02-6.89,2.18-13.98,3.31-21.01,4.79-1.4.3-2.86.45-4.2.92-5.45,1.94-11.09,3.03-16.74,4.11-3.29.63-6.52,1.57-9.79,2.3-2.54.57-3.99-.03-5.15-2.33-.71-1.41-1.23-2.97-1.55-4.52-1.42-6.88-2.9-13.76-4.05-20.69-1.07-6.46-1.71-12.99-2.62-19.47-.69-4.9-1.46-9.8-2.27-14.68-.76-4.58-1.32-9.17-1.63-13.8-.24-3.66-.61-7.32-1.03-10.97-1.88-16.56-1.99-33.18-1.7-49.82.14-7.99.7-15.96,1.57-23.91.82-7.46,1.33-14.96,2.16-22.42.51-4.6,1.42-9.15,2.07-13.74.94-6.64,1.84-13.29,2.71-19.95.66-5.08,1.45-10.12,2.96-15.03,1.13-3.68,1.66-7.48,2.23-11.28,1.29-8.58,4.16-16.73,6.72-24.97.99-3.2,2.01-6.41,2.89-9.64,1.18-4.31,2.09-8.7,4.18-12.73.58-1.12.94-2.39,1.21-3.63,1.55-7.26,4.89-13.83,7.73-20.6,2.6-6.19,5.14-12.4,7.51-18.68,2.16-5.71,5.02-11.06,7.77-16.48,1.01-2,2.05-3.98,2.96-6.03,3.77-8.47,8.15-16.63,12.79-24.66,3.59-6.22,7.43-12.31,10.26-18.96.74-1.74,1.81-3.42,3.02-4.88,4.2-5.08,7.06-11.02,10.75-16.43,1.26-1.85,2.43-3.74,3.88-5.46,2.38-2.8,4.87-5.51,6.45-8.9.33-.71.81-1.4,1.36-1.97,5.85-5.96,10.16-13.12,15.36-19.59.2-.25.42-.48.65-.71,6.69-6.64,12.67-13.95,18.86-21.03,7.92-9.05,16.46-17.43,24.98-25.85,5.45-5.39,10.94-10.82,16.96-15.53,5.93-4.63,11.13-10.1,17.21-14.47,4.94-3.55,9.76-7.21,14.2-11.38.8-.75,1.89-1.18,2.84-1.78,1.34-.86,2.9-1.53,3.97-2.66,5.37-5.68,12.27-9.15,18.71-13.28,1.88-1.21,3.82-2.31,5.51-3.81,2.67-2.37,6.08-3.5,9.17-5.16,5.77-3.09,11.54-6.18,17.16-9.55,5.75-3.45,11.7-6.6,17.72-9.55,4.6-2.25,8.94-4.91,13.4-7.39,3.08-1.71,6.25-3.2,9.44-4.68,7.55-3.49,15.32-6.49,23.14-9.24,6.16-2.17,12.17-4.87,18.6-6.25,3.45-.74,6.77-1.87,10.02-3.25,1.47-.62,2.99-1.2,4.54-1.51,4.72-.96,9.29-2.42,13.81-3.99,9.68-3.36,19.47-6.12,29.62-7.79,7.86-1.3,15.49-3.83,23.47-4.72,10.48-1.17,20.83-3.2,31.23-4.94,4.87-.81,9.86-.84,14.8-1.19,6.38-.45,12.77-.71,19.13-1.33,15.96-1.55,31.96-1.41,47.93-.72,9.88.43,19.81.7,29.61,2.39,2.83.49,5.73.57,8.57.98,13.12,1.91,26.24,3.76,39.33,5.86,5.03.81,9.97,2.25,14.95,3.35,2.03.45,4.07.87,6.13,1.12,7.98.95,15.65,3.27,23.26,5.62,6.11,1.89,12.27,3.56,18.4,5.35,1.53.45,2.97,1.17,4.46,1.75,1.64.64,3.23,1.45,4.92,1.87,7.66,1.86,14.86,4.91,21.95,8.27,1.29.61,2.66,1.1,4.04,1.51,3.69,1.1,7.26,2.46,10.69,4.24,1.55.81,3.23,1.39,4.89,1.94,4.43,1.47,8.71,3.27,12.52,5.96,2.25,1.59,4.62,2.8,7.13,3.87,2.79,1.19,5.59,2.39,8.08,4.19.64.46,1.35.89,2.09,1.16,5.02,1.81,9.41,4.71,13.77,7.69,1.57,1.08,3.36,1.85,5.08,2.69,2.44,1.2,4.72,2.71,7.12,3.94,7.56,3.87,14.26,9.1,21.58,13.35,4.66,2.71,9.38,5.48,13.29,9.35,1.24,1.23,2.7,2.27,4.17,3.21,3.38,2.16,6.53,4.59,9.46,7.32,2.1,1.96,4.29,3.82,6.91,5.13.97.49,1.76,1.36,2.6,2.09.84.73,1.53,1.75,2.49,2.23,5.54,2.82,9.11,7.97,13.97,11.6,7.69,5.75,14.15,12.92,21.43,19.15.49.42.99.82,1.44,1.27,6.75,6.81,13.55,13.58,20.21,20.48,3.99,4.14,7.81,8.45,11.62,12.76,1.79,2.03,3.35,4.27,5.07,6.36,2.94,3.56,5.42,7.53,9.19,10.36,2.19,4.12,5.45,7.47,8,11.34,2.8,4.26,5.29,8.76,9.05,12.33,1.92,4.38,6.16,7.37,7.32,12.23.34,1.43,1.49,2.42,2.39,3.54,2.09,2.61,4.45,5.04,5.76,8.19.47,1.12,1.16,2.29.11,3.66Z"/>
  <path class="b" d="m1226.13,727.2c.37-12.4-.46-24.69-1.09-36.98-.25-4.77-1.12-9.51-1.73-14.26-.83-6.5-1.68-12.99-2.52-19.49-.08-.63-.12-1.29-.29-1.9-2.37-8.33-2.97-16.99-4.64-25.45-.4-2.04-.87-4.06-1.26-6.1-.59-3.08.1-4.46,2.97-5.65,1.02-.43,2.13-.67,3.23-.87,9.77-1.77,19.22-4.75,28.76-7.42,5.84-1.63,11.84-2.65,17.77-3.95,1.25-.27,2.53-.45,3.73-.87,6.97-2.46,14.26-3.52,21.45-5.01,1.25-.26,2.47-.64,3.69-1,9.49-2.84,18.94-5.79,28.72-7.54,2.83-.5,5.6-1.29,8.4-1.95.62-.15,1.24-.35,1.87-.43,3.03-.41,4.52.35,5.65,3.17,1.37,3.42,2.34,6.98,2.99,10.6,1.29,7.23,2.2,14.54,3.74,21.72,2.33,10.82,3.36,21.77,4.23,32.77.76,9.56,1.65,19.1,2.48,28.65.01.16.02.32.03.48.17,10.71,1.37,21.4.86,32.11-.59,12.13-.83,24.27-2.28,36.35-.57,4.76-.7,9.56-1.15,14.34-.67,7.16-1.43,14.31-2.16,21.46-.06.64-.12,1.28-.29,1.89-2.64,9.42-3.56,19.15-5.24,28.75-1.21,6.94-3.49,13.61-5.33,20.4-.79,2.93-1.64,5.85-2.33,8.8-1.31,5.6-2.31,11.28-4.78,16.55-.34.72-.58,1.5-.74,2.28-1.7,8.35-4.77,16.23-8.21,23.99-.51,1.16-.8,2.42-1.17,3.64-1.3,4.28-2.88,8.45-4.6,12.6-4.28,10.34-10.23,19.89-14.27,30.33-.34.89-.86,1.71-1.33,2.55-2.87,5.17-5.66,10.36-8.25,15.68-3.42,7.02-7.31,13.83-11.37,20.54-3.29,5.44-7.13,10.62-9.16,16.78-.55,1.68-1.61,3.12-2.86,4.39-1.81,1.84-3.14,4.01-4.48,6.2-4.33,7.1-9.14,13.87-14.62,20.14-.52.6-1.04,1.22-1.47,1.88-3.81,5.92-8.2,11.37-12.92,16.6-2.99,3.31-5.54,7-8.47,10.39-9.72,11.26-19.86,22.11-30.47,32.54-10.04,9.88-20.71,19.02-31.48,28.08-4.51,3.8-9.75,6.73-13.6,11.32-3.86,1.99-6.91,5.11-10.51,7.46-.8.52-1.59,1.09-2.24,1.78-2.33,2.45-4.92,4.61-7.77,6.37-4.75,2.93-8.98,6.69-14.09,9.05-.58.27-1.14.59-1.65.97-9.13,6.82-19.59,11.42-29.2,17.42-7.74,4.83-16.35,8.04-23.89,13.23-1.3.89-2.87,1.39-4.33,2.04-.88.39-1.85.59-2.67,1.06-7.82,4.41-16.49,6.96-24.35,11.28-1.12.62-2.25,1.34-3.47,1.63-7.96,1.88-15.14,6.05-23.15,7.78-4.39.95-8.57,2.54-12.73,4.23-7.28,2.96-14.94,4.64-22.52,6.57-.62.16-1.28.18-1.87.41-11.4,4.42-23.57,5.73-35.33,8.7-12.09,3.05-24.46,4.73-36.85,6.1-1.27.14-2.55.21-3.83.27-12.46.53-24.86,1.72-37.26,2.92-5.88.57-11.8.76-17.71.99-12.8.5-25.58-.26-38.34-1.05-7-.43-14.01-1.06-20.95-2.28-3.77-.66-7.63-.79-11.44-1.16-10.33-1.02-20.59-2.26-30.77-4.56-11.52-2.59-23-5.51-34.71-7.22-4.16-.61-7.88-2.59-11.94-3.5-6.71-1.5-13.32-3.38-19.67-6.06-1.91-.81-3.85-1.57-5.76-2.37-.88-.37-1.71-.97-2.62-1.18-8.13-1.89-15.42-6.17-23.49-8.24-3.6-.92-6.66-3.08-10.03-4.54-2.79-1.21-5.53-2.52-8.36-3.61-3.14-1.2-6.35-2.19-9.16-4.12-.65-.45-1.42-.76-2.17-.99-4.79-1.46-9.14-3.77-13.34-6.45-3.24-2.07-6.71-3.7-10.17-5.36-3.01-1.44-5.76-3.42-8.67-5.09-6.1-3.49-12.29-6.81-18.31-10.41-6.3-3.76-12.47-7.76-18.67-11.69-5.54-3.51-10.67-7.57-16.12-11.16-5.89-3.89-11.53-8-16.56-12.95-.46-.45-.92-.9-1.44-1.27-9.3-6.55-17.36-14.58-26-21.92-5.99-5.08-11.23-10.94-17.13-16.08-7.98-6.96-14.63-15.19-22.13-22.6-3.96-3.91-7.29-8.47-10.9-12.75-3.8-4.52-7.6-9.04-11.38-13.58-.61-.73-1.23-1.48-1.7-2.3-1.91-3.34-3.98-6.54-6.84-9.19-1.31-1.21-2.08-2.86-2.72-4.48-1.2-3.02-3.06-5.58-5.19-7.99-1.05-1.2-2.02-2.49-2.9-3.82-.79-1.2-1.49-2.5-1.45-4,.01-.43.22-1.04.54-1.23.3-.18.99-.08,1.3.16,1.79,1.37,3.23,3.07,4.44,4.98,1.54,2.43,3.21,4.77,5.31,6.77,2.78,2.64,5.7,5.17,7.31,8.79,4.3,4.07,7.16,9.35,11.6,13.37,3.77,3.41,7.53,6.93,10.47,11.18.72,1.04,1.67,1.98,2.68,2.73,4.9,3.65,9,8.14,13.23,12.49,1.45,1.49,3.08,2.74,4.75,3.99,3.19,2.38,6.3,4.91,9.16,7.68,6.23,6.01,13.17,11.14,19.87,16.57,3.84,3.12,7.74,6.16,11.6,9.26,2.12,1.71,4.33,3.27,6.8,4.45,2.92,1.39,4.97,3.99,7.67,5.71,1.48.94,2.8,2.17,4.34,2.98,8.08,4.22,15.71,9.21,23.56,13.83,3.03,1.78,6.26,3.22,9.33,4.92,5.72,3.18,11.4,6.45,17.1,9.67.7.39,1.36.85,2.1,1.16,6.18,2.59,12.29,5.39,18.59,7.65,4.82,1.73,9.52,3.73,14.21,5.76,2.79,1.21,5.57,2.38,8.5,3.23,3.68,1.07,7.31,2.29,10.86,3.78,2.5,1.05,5.14,1.77,7.74,2.55,8.11,2.44,16.23,4.85,24.35,7.24,5.53,1.63,11.26,2.33,16.9,3.44,8.93,1.76,17.81,3.8,26.72,5.64,6.26,1.29,12.59,2.16,18.98,2.55,6.22.39,12.42,1,18.63,1.5,1.12.09,2.23.15,3.35.18,15.99.42,31.99.85,47.97.09,13.09-.63,26.17-1.49,39.22-2.62,5.71-.5,11.38-1.7,16.98-2.99,10.59-2.44,21.27-4.41,31.93-6.48,6.45-1.25,12.53-3.79,18.78-5.71,4.28-1.32,8.54-2.68,12.94-3.53.63-.12,1.29-.2,1.86-.46,8.05-3.58,16.8-5.04,24.95-8.43,5.88-2.44,11.64-5.32,17.89-6.84.62-.15,1.22-.4,1.78-.7,7.51-3.91,15.6-6.59,22.78-11.22,3.07-1.98,6.6-3.23,9.86-4.93,5.1-2.66,10.1-5.49,15.06-8.39,11.59-6.77,23.12-13.63,33.91-21.62,2.83-2.09,5.65-4.16,8.62-6.02.54-.34,1.12-.66,1.55-1.12,4.96-5.29,11.16-9.04,16.74-13.57.74-.6,1.6-1.1,2.25-1.78,6.99-7.26,15.33-13.04,22.15-20.51,3.09-3.38,6.82-6.23,9.96-9.64,5.08-5.52,10.56-10.72,15.24-16.56,7.49-9.33,15.5-18.24,22.41-28.06,2.84-4.03,6.06-7.81,8.87-11.9,1.18-1.72,2.45-3.35,3.33-5.25,1.43-3.1,4.06-5.33,5.87-8.15.52-.8,1.33-1.44,1.73-2.28,2.01-4.2,4.84-7.82,7.7-11.45,2.08-2.64,3.68-5.57,4.97-8.72,1.39-3.39,3.96-6.19,5.07-9.75,1.39-4.47,3.78-8.43,6.29-12.34.52-.81.99-1.65,1.38-2.53,2.93-6.73,6.59-13.12,9.22-20.01,1.42-3.71,3.53-7.16,5.36-10.71,1.18-2.28,2.14-4.62,2.83-7.11.67-2.46,1.53-4.9,2.61-7.21,1.7-3.64,3.02-7.4,3.95-11.29,1.23-5.16,3.23-10.05,5.18-14.94,2.39-5.99,3.61-12.25,5.14-18.45.23-.93.29-1.9.57-2.82,3.06-10.14,4.04-20.68,5.89-31.06.28-1.57.55-3.15.87-4.71,2.48-12.22,4.02-24.59,5.65-36.94.08-.63.1-1.28.12-1.91.41-12.62,1.43-25.23,1.02-37.8Z"/>
  <path class="b" d="m494.01,697.08c-.31-13.16,1.2-26.18,2.84-39.19.82-6.5,1.53-13.01,2.29-19.52.35-3.02.95-5.99,1.76-8.93,2.55-9.24,5.17-18.46,7.52-27.74,1.11-4.36,3.03-8.43,4.2-12.74,2.02-7.45,5.24-14.39,8.48-21.35,2.29-4.92,4.34-9.96,6.55-14.92,2.81-6.31,6.25-12.22,9.77-18.13,2.21-3.7,4.4-7.43,6.27-11.3,3.7-7.68,8.73-14.54,13.78-21.27,4.1-5.47,7.87-11.25,12.61-16.25,1.43-1.51,2.8-3.07,4.26-4.55,1.56-1.6,3.21-3.09,4.29-5.12.51-.97,1.34-1.8,2.12-2.59,6.28-6.38,12.44-12.88,18.93-19.04,6.12-5.83,12.59-11.3,18.92-16.91.59-.53,1.23-1.1,1.95-1.37,3.87-1.43,6.75-4.24,9.7-6.92,1.91-1.74,3.97-3.2,6.21-4.46,2.64-1.5,5.24-3.02,7.1-5.58,1.14-1.57,3-2.36,4.64-3.34,2.75-1.64,5.55-3.17,8.33-4.74,5.01-2.83,9.96-5.76,15.03-8.48,6.34-3.39,12.76-6.61,19.42-9.36,4.13-1.71,8.22-3.55,12.24-5.51,2.46-1.21,5.01-2.08,7.64-2.78,4.17-1.11,8.28-2.42,12.31-3.98,4.93-1.91,10.17-2.74,15.29-4,1.7-.42,3.42-.83,5.08-1.4,7.56-2.63,15.27-4.75,23.17-5.94,7.26-1.09,14.58-1.84,21.9-2.55,9.7-.94,19.41-1.82,29.13-2.5,7.5-.52,15.02-.66,22.51.37,1.26.18,2.55.18,3.83.27,10.84.76,21.72,1.13,32.5,2.4,7.9.93,15.81,2.18,23.53,4.4,7.52,2.17,15.12,4.03,22.69,6.01,3.87,1.01,7.71,2.1,11.37,3.76,1.59.73,3.26,1.33,4.95,1.8,6.04,1.68,11.7,4.27,17.36,6.91,2.46,1.15,4.93,2.29,7.44,3.31,9.33,3.83,18.33,8.3,26.93,13.6,5.71,3.52,11.66,6.65,17.51,9.94,2.24,1.26,4.23,2.83,6.24,4.43,3.25,2.58,6.82,4.73,10.14,7.23,4.08,3.07,7.92,6.45,12.06,9.43,6.37,4.6,11.49,10.62,17.64,15.43,7.61,5.95,13.47,13.63,20.68,19.96,2.04,1.79,3.26,4.31,5.02,6.39,3.3,3.89,6.35,7.98,9.93,11.65,1.52,1.55,1.67,3.35.73,3.74-1.48.62-2.37-.47-3.31-1.32-.47-.43-1.01-.83-1.35-1.36-2.64-4.06-6.39-7.15-9.88-10.32-4.02-3.65-7.84-7.5-11.89-11.11-4.76-4.24-10.01-7.88-14.56-12.42-2.92-2.91-6.37-5.34-9.82-7.64-3.6-2.41-6.89-5.18-10.28-7.85-.75-.59-1.45-1.28-2.28-1.74-4.75-2.64-9.51-5.25-14.3-7.81-3.81-2.03-7.64-4.03-11.5-5.95-2.14-1.07-4.39-1.92-6.57-2.91-5.24-2.37-10.47-4.76-15.7-7.15-.44-.2-.84-.49-1.29-.63-8.87-2.67-17.14-7.09-26.31-8.91-1.41-.28-2.81-.66-4.16-1.14-11.5-4.07-23.38-6.51-35.41-8.29-3.47-.51-7-.75-10.5-.93-7.82-.39-15.61-1.23-23.41-1.88-7.97-.66-15.96-.53-23.94.4-7.3.85-14.65,1.16-21.96,1.95-12.55,1.35-25.15,2.68-37.14,6.89-5.75,2.02-11.74,3.15-17.47,5.11-10.86,3.71-22.13,6.46-32.04,12.63-.14.08-.28.16-.43.22-6.13,2.37-11.61,6.04-17.48,8.87-6.22,3-11.83,7-18.05,9.92-.14.07-.29.14-.42.23-5.32,3.79-10.75,7.45-15.94,11.42-5.32,4.08-10.52,8.33-15.55,12.76-6.35,5.59-12.83,11.03-18.78,17.08-8.53,8.67-16.69,17.65-23.91,27.44-3.68,5-7.81,9.73-10.28,15.55-.43,1.01-1.2,1.88-1.82,2.8-2.51,3.7-4.65,7.62-6.89,11.49-4.08,7.07-7.07,14.7-11.51,21.56-.69,1.07-1.3,2.22-1.75,3.41-1.82,4.78-4.12,9.39-5.8,14.18-2.85,8.14-5.93,16.2-8.91,24.29-.82,2.24-1.51,4.55-2.06,6.88-1.8,7.62-3.81,15.2-5.15,22.9-1.31,7.54-1.93,15.21-2.78,22.83-.6,5.4-1.11,10.8-1.63,16.21-.14,1.43-.17,2.87-.24,4.31-.67,14.1.47,28.11,2.07,42.1.76,6.67,1.23,13.36,2.39,19.99.63,3.62,1.12,7.28,2.33,10.76,1.16,3.32.73,5.98-3.93,7.85-.89.36-1.8.68-2.72.93-9.71,2.62-19.29,5.76-29.27,7.36-2.98.48-5.94,1.27-8.83,2.2-5.05,1.62-10.27,2.4-15.42,3.49-4.22.9-8.43,1.74-12.56,3.07-4.6,1.48-6.4.48-7.88-4.19-2.13-6.72-3.42-13.63-4.21-20.64-1.25-11.11-2.66-22.21-3.63-33.35-.59-6.68-.48-13.42-.68-20.13Z"/>
  <path class="b" d="m1163.91,710.73c.49,13.05-.27,24.55-1.19,36.02-.53,6.67-1.89,13.28-3.13,19.87-1.45,7.69-3.36,15.3-4.71,23-1.02,5.85-2.4,11.62-4.31,17.18-2.9,8.45-5.17,17.12-8.73,25.34-.89,2.05-1.88,4.1-2.45,6.25-.78,2.98-2.1,5.68-3.47,8.4-2.37,4.72-4.67,9.46-7,14.2-.14.29-.18.64-.36.89-5.11,6.98-7.99,15.23-12.82,22.39-2.67,3.96-4.87,8.25-7.27,12.4-.64,1.11-1.1,2.34-1.86,3.35-4,5.37-7.98,10.75-12.13,16-3.27,4.13-6.89,7.99-10.15,12.13-2.68,3.41-5.72,6.46-8.71,9.58-9.96,10.4-20.41,20.31-31.41,29.59-3.79,3.2-7.62,6.32-11.19,9.76-4.29,4.14-9.86,6.5-14.44,10.2-5.01,4.04-10.7,6.99-16.18,10.2-4.82,2.83-9.59,5.72-14.24,8.82-1.19.79-2.49,1.45-3.81,2.02-3.67,1.58-7.36,3.11-10.74,5.29-.8.51-1.7.95-2.62,1.16-4.88,1.16-9.26,3.5-13.69,5.71-3.45,1.73-7.01,3.17-10.71,4.17-7.27,1.96-14.2,4.89-21.33,7.24-5.6,1.84-11.45,2.93-17.19,4.33-1.4.34-2.84.52-4.2.95-11.06,3.54-22.57,4.38-34,5.56-10.49,1.08-21,1.88-31.52,2.6-5.74.39-11.49.41-17.24-.26-5.39-.63-10.84-.65-16.25-1.24-7.78-.84-15.63-1.05-23.4-2-7.76-.95-15.5-2.11-23.06-4.32-4.13-1.21-8.38-2.12-12.63-2.8-6.72-1.06-12.81-3.87-19.06-6.26-2.09-.8-4.14-1.74-6.28-2.35-6.95-1.97-13.54-4.86-20.05-7.93-4.77-2.24-9.72-4.08-14.54-6.22-8.81-3.91-16.9-9.08-25.26-13.77-6.38-3.58-12.86-7.15-18.39-12.1-.59-.53-1.25-1.01-1.95-1.38-5.97-3.18-11.1-7.47-16.12-11.94-3.69-3.29-7.79-6.1-11.47-9.43-9.37-8.46-18.9-16.72-27.29-26.23-4.54-5.15-9.02-10.36-13.42-15.63-2.11-2.53-2.84-4.59-1.79-4.88,2.11-.59,3.06,1.28,4.36,2.34,2.72,2.23,5.2,4.68,7.51,7.35,3.57,4.11,7.76,7.55,12.23,10.69,2.07,1.46,3.85,3.36,5.65,5.17,1.93,1.94,4.07,3.57,6.28,5.17,3.75,2.71,7.53,5.43,10.93,8.55,5.58,5.13,12.02,8.98,18.28,13.12,1.85,1.22,3.85,2.25,5.69,3.54,3.8,2.67,7.67,5.22,12.17,6.63.3.09.61.22.88.38,6.07,3.61,12.79,5.85,19.01,9.13,4.39,2.32,8.89,4.38,13.66,5.82.61.18,1.25.34,1.81.64,6.54,3.56,13.86,4.79,20.85,7.04,6.86,2.21,13.81,4.03,20.84,5.46,8.76,1.78,17.57,3.3,26.56,3.7,6.06.27,12.09,1.2,18.14,1.5,7.48.37,14.9,1.54,22.48.6,9.19-1.13,18.49-1.35,27.7-2.28,5.07-.51,10.14-1.29,15.2-1.94,6.87-.87,13.47-2.64,20.1-4.45,2.31-.63,4.59-1.37,6.82-2.23,3.6-1.39,7.43-1.93,11.09-3.05,11.31-3.46,22.57-7.07,33.02-12.78,1.26-.69,2.54-1.36,3.86-1.94,8.21-3.59,16.13-7.77,23.93-12.14,6.41-3.59,12.93-7.18,18.67-11.69,8.01-6.3,16.59-11.95,23.67-19.43,3.28-3.47,7.33-6.15,10.68-9.6,4.55-4.69,9.22-9.27,13.84-13.89.11-.11.21-.24.33-.35,8.42-7.06,14.13-16.43,20.9-24.87,3.55-4.43,6.89-9.19,9.28-14.49,1.04-2.31,2.79-4.28,4.06-6.5,3.96-6.94,8.03-13.81,11.1-21.21.86-2.06,1.97-4.02,3.01-6,2.6-4.96,4.71-10.12,6.87-15.29,4.76-11.39,7.4-23.47,11.98-34.9,1.9-4.76,2.6-9.92,3.22-14.97.91-7.46,2.44-14.82,3.51-22.25.73-5.07,1.2-10.17,1.43-15.26.59-13.27.6-26.55.03-39.82-.35-8.14-1.29-16.23-2.88-24.25-1.24-6.26-2.1-12.6-2.98-18.93-.65-4.69.47-6.34,4.89-7.98,4.37-1.62,8.91-2.63,13.47-3.41,9.8-1.68,19.19-4.9,28.75-7.45,3.24-.86,6.51-1.66,9.81-2.25,4.73-.84,9.41-1.83,14-3.27,1.06-.33,2.16-.65,3.26-.75,2.41-.23,4.03.8,4.9,2.99.18.44.26.92.35,1.39,1.44,7.37,3.7,14.56,4.71,22.03.51,3.79,1.5,7.52,2.01,11.32,1.16,8.72,1.66,17.5,1.85,26.29.11,4.8.02,9.6.02,12.88Z"/>
  <path class="b" d="m1220.38,1395.11c0-38.54,0-77.07,0-115.61,0-1.76-.07-3.53.11-5.27.26-2.44,1.92-4.05,4.37-4.35,1.1-.14,2.23-.1,3.35-.1,39.66,0,79.31,0,118.97,0,5.17,0,10.14,1.26,15.09,2.42,11.07,2.59,20.92,7.7,29.71,14.94,3.09,2.54,6.28,4.97,8.89,8.01,5.32,6.19,10.34,12.65,14.2,19.84,4.77,8.86,9.37,17.81,12.29,27.54,2.4,7.98,4.26,16.05,5.72,24.24.7,3.94.61,7.99,1.24,11.89,1.46,9.09.62,18.19.88,27.28.06,2.24-.01,4.47-.63,6.66-.26.91-.31,1.89-.36,2.85-1.1,18.26-5.76,35.61-13.68,52.05-2.97,6.17-6.25,12.24-10.29,17.84-7.2,9.97-16.08,18.16-26.55,24.56-7.58,4.63-16,7.13-24.55,9.36-6.3,1.65-12.65,1.58-19.04,1.58-36.3,0-72.6,0-108.9,0-1.76,0-3.52.05-5.28-.04-3.81-.19-5.36-1.8-5.52-5.72-.07-1.76-.03-3.52-.03-5.28,0-38.22,0-76.43,0-114.65Zm55.35-1.22c0,20.62,0,41.24,0,61.85,0,1.76-.05,3.52.06,5.27.25,3.86,1.54,5.12,5.3,5.33.64.04,1.28.03,1.92.03,16.78,0,33.56-.01,50.35,0,6.47,0,12.21-2.18,17.44-5.81,6.79-4.7,11.15-11.41,14.58-18.67,7.01-14.83,9.92-30.61,10-46.94.03-6.06.07-12.09-.84-18.16-.57-3.82-1.61-7.48-2.38-11.22-1.82-8.82-4.95-17.18-9.43-25.01-2.07-3.63-4.68-6.94-7.83-9.63-6.39-5.46-13.76-8.46-22.36-8.4-16.3.13-32.6.03-48.91.04-1.28,0-2.57-.05-3.83.11-2.42.3-3.68,1.57-3.93,4.07-.18,1.74-.14,3.51-.14,5.27,0,20.62,0,41.24,0,61.85Z"/>
  <path class="c" d="m642.23,1433.15c0-26.23,0-52.45,0-78.68,0-1.6-.06-3.21.14-4.79.31-2.35,1.71-3.69,4.07-4.07.94-.15,1.91-.13,2.87-.13,12.31,0,24.63,0,36.94,0,.8,0,1.6-.02,2.4.07,3.25.36,4.54,1.57,4.81,4.83.26,3.02.31,6.06.5,9.09.08,1.27.15,2.56.43,3.79.27,1.18,1.75,1.67,2.69.94.88-.68,1.7-1.46,2.44-2.28,10.32-11.44,23.44-17.8,38.43-19.72,15.45-1.98,30.3.72,43.75,9.07,5.35,3.32,9.59,7.91,13.37,12.92.77,1.02,1.39,2.16,2.21,3.13,1.5,1.79,3.18,1.86,4.95.21.81-.76,1.53-1.63,2.19-2.53,5.87-8.05,13.25-14.23,22.42-18.23,2.2-.96,4.43-1.78,6.75-2.44,9.68-2.77,19.57-3.04,29.48-2.36,11.44.79,21.72,5,30.91,11.83,2.71,2.01,5.12,4.39,7.17,7.04,5.04,6.5,8.9,13.64,10.85,21.7,1.51,6.2,2.6,12.48,3.73,18.76,1.17,6.56,1.11,13.03,1.12,19.55.07,30.23.03,60.45.02,90.68,0,1.6.07,3.22-.16,4.79-.38,2.63-1.82,3.87-4.49,4.11-1.11.1-2.24.07-3.36.07-12.63,0-25.27,0-37.9,0-1.12,0-2.24.03-3.36-.07-2.66-.24-4.1-1.49-4.47-4.13-.23-1.57-.15-3.19-.15-4.79,0-31.19-.04-62.37.03-93.55.01-5.02-.61-9.89-2.33-14.59-1.22-3.31-2.82-6.37-5.41-8.93-3.11-3.07-6.85-4.88-10.98-5.45-7.07-.98-14.06-.09-20.66,2.77-4.37,1.9-7.67,5.34-10.26,9.15-2.87,4.22-4.45,9.01-5.55,14.15-1.53,7.16-1.28,14.29-1.3,21.46-.06,24.95-.02,49.9-.03,74.84,0,1.6.06,3.21-.08,4.79-.24,2.63-1.63,3.96-4.31,4.26-.95.11-1.92.09-2.88.09-13.11,0-26.23-.08-39.34.04-5.65.05-7.35-1.31-7.33-7.24.1-29.91-.03-59.81.11-89.72.03-5.67-.7-11.19-2.04-16.6-2.38-9.59-7.93-16.28-18.26-17.97-2.55-.42-5.14-.52-7.65-.16-6.22.9-12.19,2.54-17.25,6.61-2.15,1.73-4.03,3.66-5.36,6.06-2.19,3.94-3.91,8.13-4.57,12.56-.8,5.35-1.5,10.72-1.48,16.2.12,27.03.06,54.05.05,81.08,0,1.6.06,3.21-.08,4.79-.24,2.63-1.63,3.96-4.31,4.26-.95.11-1.92.09-2.88.09-13.11,0-26.23-.08-39.34.04-5.65.05-7.36-1.31-7.33-7.24.11-26.71.05-53.41.04-80.12Z"/>
  <path class="c" d="m23.06,1394.78c-.1-22.35,3.79-41.82,11.83-60.38,4.53-10.45,10.45-20.1,17.83-28.87,3.2-3.8,6.38-7.59,10.08-10.89,6.93-6.18,14.46-11.59,22.48-16.27,14.93-8.72,30.97-14.27,48.09-16.85,11.57-1.74,23.18-2.48,34.84-1.97,6.53.28,13.02,1.23,19.43,2.59,7.68,1.63,15.2,3.82,22.51,6.64,7.79,3,15.07,6.98,21.56,12.32,3.58,2.94,7.46,5.52,10.53,9.04.84.96,1.74,1.89,2.39,2.98,1.54,2.6,1.24,4.44-1.04,6.34-3.93,3.27-7.92,6.46-11.88,9.68-5.82,4.73-11.63,9.49-17.47,14.2-2.36,1.9-4.82,3.69-7.21,5.55-1.77,1.37-3.57,1.22-5.34.08-.8-.51-1.51-1.18-2.2-1.84-6.37-6.01-13.64-10.36-22.02-13.13-13.65-4.51-27.24-4.54-41.04-.89-12.25,3.24-22.66,9.6-31.46,18.47-7.6,7.66-13.73,16.5-16.99,26.92-2.09,6.69-3.87,13.47-4.88,20.47-.8,5.58-.98,11.13-.89,16.72.33,19.11,5.98,36.54,17.49,51.8,10.73,14.23,25,23.02,42.68,26.08,13.95,2.41,27.41.87,40.18-5.27,7.86-3.78,14.66-9.07,20.1-15.97.2-.25.34-.54.55-.79,2.32-2.8,4.53-3.19,7.48-1.13,2.62,1.83,5.14,3.8,7.7,5.71,8.06,6.03,16.13,12.04,24.18,18.1,2.3,1.73,4.58,3.48,6.75,5.36,2.62,2.27,2.83,4.2,1.04,7.17-.33.55-.64,1.13-1.08,1.58-5.72,6-11.02,12.43-18.26,16.82-4.64,2.81-8.97,6.13-13.93,8.43-11.21,5.2-22.81,9.32-35.02,11.31-9.46,1.54-19.02,2.4-28.65,1.87-1.11-.06-2.23-.21-3.33-.34-6.18-.76-12.36-1.46-18.53-2.32-4.91-.68-9.72-1.89-14.48-3.26-16.28-4.69-31.43-11.81-44.94-22.06-6.34-4.81-12.28-10.05-17.48-16.25-7.58-9.03-13.86-18.75-18.78-29.39-5.8-12.55-9.79-25.63-11.32-39.45-.77-6.99-1.97-13.93-1.51-18.9Z"/>
  <path class="c" d="m360.23,1342.2c14.45-.34,27.6,2.17,40.17,7.13,10.89,4.3,21.19,9.81,29.3,18.61.22.24.44.47.68.68,7.76,6.68,13.31,15.06,18.19,23.91,4.37,7.93,6.5,16.62,7.98,25.49.95,5.69,1.26,11.41,1.13,17.18-.27,12.26-2.13,24.25-7.34,35.4-4.26,9.11-9.27,17.87-16.67,24.95-3.57,3.42-6.91,7.05-10.85,10.12-9.36,7.29-19.97,11.9-31.16,15.47-7.35,2.34-14.93,3.56-22.53,4.3-6.32.61-12.76.78-19.11-.39-.78-.14-1.58-.25-2.38-.3-11.81-.81-22.83-4.38-33.42-9.49-5.92-2.86-11.71-5.89-16.7-10.24-6.26-5.46-12.42-10.98-17.06-18.01-3.8-5.75-7.29-11.61-9.77-18.08-2.7-7.06-4.34-14.33-5.57-21.77-1.08-6.53-1.21-13.08-.81-19.59.63-10.06,2.51-19.91,6.37-29.35,2.69-6.57,6.13-12.68,10.36-18.3,7.76-10.31,17.05-18.97,28.5-25.19,9.79-5.32,20.21-8.93,31.07-10.94,6.7-1.24,13.56-2.24,19.63-1.59Zm.5,48.06c-8.09-.73-15.46,1.9-22.67,5.09-2.17.96-4.23,2.19-6.03,3.84-6.94,6.39-11.24,14.15-13.07,23.44-.88,4.46-.88,8.9-.84,13.36.06,7.48,1.84,14.52,5.49,21.11,3.91,7.06,9.11,12.88,16.56,16.07,6.76,2.89,13.79,4.75,21.39,4.57,8.06-.19,15.4-2.41,22.5-5.87,2.03-.99,3.76-2.39,5.4-3.94,7.47-7.05,12.07-15.58,13.62-25.77,1.94-12.81.33-24.89-7.45-35.6-3.58-4.93-7.66-9.51-13.5-11.91-6.84-2.81-13.83-5.07-21.4-4.39Z"/>
  <path class="c" d="m540.29,1525.63c-6.86.73-14.25-.87-21.65-2.04-4.41-.7-8.79-1.66-13.12-2.76-9.89-2.51-18.87-6.94-26.96-13.19-1.4-1.08-2.72-2.24-3.77-3.67-1.16-1.6-1.21-3.25-.07-4.9.27-.39.55-.79.87-1.14,3.97-4.37,7.93-8.76,11.95-13.1,1.74-1.88,3.48-3.72,5.03-5.78,2.79-3.72,6.27-6.83,9.62-10.04,2.3-2.2,4.25-2.11,6.72.16,2.82,2.6,5.42,5.41,8.6,7.62,3.58,2.49,7.39,4.6,11.53,5.76,8.9,2.5,17.93,3.21,26.94.36,1.97-.63,3.92-1.38,5.79-2.27,8.14-3.88,6.86-15.05.71-18.52-3.78-2.13-7.71-3.93-11.92-4.97-9-2.23-18-4.46-27.06-6.39-6.94-1.48-13.46-4.01-19.95-6.75-1.18-.5-2.32-1.07-3.5-1.58-3.26-1.42-6.24-3.24-8.64-5.91-.53-.59-1.09-1.18-1.71-1.69-5.83-4.75-8.99-11.12-10.9-18.2-3.16-11.73-3.01-23.47,1.05-34.91,3.43-9.66,9.37-17.55,17.51-24.09,11.31-9.07,24.32-12.9,38.29-14.93,6.87-1,13.71-1.19,20.56-.87,13.98.66,27.57,3.3,40.34,9.37,5.1,2.42,9.64,5.65,13.92,9.29.61.52,1.19,1.07,1.71,1.68,1.37,1.6,1.55,2.97.41,4.82-.66,1.07-1.53,2.05-2.42,2.95-5.64,5.68-11.25,11.38-16.99,16.94-2.52,2.44-5.26,4.66-8,6.85-2.63,2.1-4.88,2.08-7.28-.23-5.86-5.63-12.88-8.81-20.76-10.25-6.82-1.25-13.36-.29-19.57,2.81-2.52,1.26-4.39,3.15-5.62,5.7-2.39,4.96-.83,10.47,3.87,13.38,3.56,2.2,7.39,3.75,11.47,4.75,9.78,2.4,19.55,4.84,29.31,7.32,9.19,2.34,18.16,5.3,25.85,11.07,8.09,6.07,14.58,13.42,17.21,23.53,1.08,4.18,2.02,8.38,1.9,12.76-.15,5.1.27,10.21-.99,15.27-3.11,12.55-9.25,23-20.15,30.41-10.11,6.86-21.22,10.94-33.22,12.98-8.68,1.47-17.36,2.72-26.92,2.37Z"/>
  <path class="c" d="m1127.77,1525.32c-15.2.07-28.33-2.39-41-7.16-4.17-1.57-8.18-3.65-12.09-5.81-16.5-9.08-28.51-22.33-36.61-39.32-4.18-8.77-6.53-17.93-7.89-27.5-.95-6.72-1.12-13.45-.5-20.08,1.2-12.98,4.76-25.36,11.27-36.84,6.18-10.88,14.12-20.16,24.11-27.58,10.12-7.52,21.5-12.57,33.73-15.62,11.56-2.89,23.32-3.83,35.18-3.14,4.76.28,9.51.99,14.2,2.03,8.77,1.94,17.28,4.54,25.24,8.86,4.41,2.39,8.1,5.68,11.91,8.82,2.2,1.81,2.33,4.01.44,6.35-2.71,3.34-5.58,6.57-8.54,9.7-3.4,3.6-7.02,7-10.47,10.56-2.56,2.63-5.01,5.38-7.5,8.07-.76.82-1.47,1.7-2.29,2.45-2.07,1.87-3.88,2.06-5.95.2-1.8-1.63-3.86-2.82-5.82-4.17-4.21-2.9-9.03-4.18-13.95-4.71-10.44-1.12-20.38.76-29.57,6.02-4.85,2.78-8.23,6.97-11.19,11.61-4.43,6.93-6.61,14.48-6.68,22.67-.04,4.63-.02,9.22.92,13.83,1.88,9.27,6.24,17.09,13.13,23.42,3.92,3.6,8.69,5.96,13.83,7.41,5.71,1.62,11.49,2.66,17.49,2.26,2.27-.15,4.49-.34,6.53-1.3,4.04-1.88,8.23-3.52,11.47-6.8,1-1.01,2.25-1.79,3.43-2.61,2.75-1.9,5.14-1.75,7.17.78,6.22,7.75,13.37,14.61,20.26,21.72,2.88,2.98,5.55,6.17,8.22,9.34,2.13,2.53,2.07,4.35-.47,6.64-3.32,2.99-6.89,5.72-10.83,7.88-7.19,3.93-14.82,6.75-22.75,8.81-8.55,2.23-17.21,3.43-24.43,3.19Z"/>
  <path class="b" d="m969.88,574.56c-1.94,0-3.14-1.01-4.18-2.19-4.81-5.45-10.79-9.45-16.68-13.57-2.48-1.74-4.78-3.74-7.17-5.61-.75-.59-1.46-1.35-2.32-1.68-6.58-2.51-12.09-7.15-18.9-9.25-3.02-.93-5.78-2.71-8.61-4.2-2.56-1.36-5.24-2.34-8.03-3.13-4.92-1.38-9.81-2.91-14.75-4.22-4.79-1.27-9.7-1.89-14.63-2.45-11.96-1.36-23.94-1.15-35.93-1.01-7.87.09-15.69.98-23.32,2.57-7.95,1.66-15.9,3.84-23.44,6.81-9.34,3.68-18.53,7.89-27.22,12.99-7.17,4.21-13.79,9.21-20.24,14.48-3.98,3.25-7.79,6.63-11.24,10.4-5.5,6-11.29,11.73-16.31,18.16-.39.5-.83,1.01-1.07,1.58-1.87,4.48-5.07,8.12-7.63,12.17-.68,1.08-1.55,2.09-1.99,3.26-2.23,5.85-5.54,11.16-8.3,16.74-.28.57-.6,1.14-.81,1.74-2.88,8.3-6.15,16.49-8.09,25.08-.95,4.2-1.23,8.55-2.17,12.75-1.58,7.05-2.48,14.16-2.5,21.38,0,1.76-.01,3.52-.04,5.28-.13,8.98.62,17.88,2.67,26.65.54,2.33.93,4.7,1.24,7.08.52,3.98-.84,5.89-4.86,6.9-1.86.46-3.76.75-5.63,1.16-5.46,1.19-10.92,2.34-16.27,4.02-3.94,1.24-8.11,1.73-12.19,2.52-.62.12-1.27.11-1.91.11-2.78-.04-4.06-.92-4.89-3.65-.51-1.68-.85-3.42-1.12-5.15-.85-5.52-1.72-11.05-2.42-16.59-1.07-8.41-1.43-16.81-1.05-25.33.54-12.22,3.56-24,5.28-36.01.2-1.42.5-2.87,1.04-4.18,2.13-5.2,3.14-10.74,5.05-15.99,1.53-4.19,3.42-8.27,5.4-12.27,1.29-2.59,2.44-5.19,3.24-7.97.4-1.38.78-2.8,1.46-4.04,3.06-5.61,5.92-11.36,9.46-16.66,2.46-3.68,5.24-7.24,7.82-10.85,5.33-7.45,11.5-14.14,18.14-20.32,5.23-4.86,10.28-9.97,16.25-14.09,4.84-3.34,9.25-7.39,14.33-10.37,6.04-3.55,11.97-7.39,18.6-9.86,1.49-.56,2.92-1.31,4.32-2.08,6.06-3.3,12.3-6.12,19.06-7.7,6.37-1.49,12.37-4.26,18.92-5.18,12.17-1.71,24.24-4.25,36.58-4.53,4.96-.11,9.89-.04,14.83.65,4.74.67,9.53,1.21,14.31,1.33,8.22.2,16.09,2.52,24.15,3.65.47.07.94.2,1.39.37,9.39,3.57,19.28,5.73,28.18,10.73,5.83,3.28,12.08,5.8,18.13,8.71,1.58.76,3.24,1.49,4.58,2.58,4.97,4,10.31,7.49,15.31,11.47,8.29,6.6,15.66,14.11,23.05,21.63,1.43,1.45,2.96,2.85,3.11,5.2Z"/>
  <path class="b" d="m1020.68,711.97c-.08,10.25-.25,20.49-2.27,30.57-1.66,8.3-3.46,16.59-5.65,24.76-1.19,4.45-3.31,8.65-5.04,12.94-.95,2.37-2.08,4.68-2.93,7.09-1.4,3.95-3.24,7.61-5.78,10.97-1.53,2.02-2.78,4.32-3.81,6.64-3.66,8.24-8.61,15.61-14.26,22.61-2.8,3.47-6.11,6.53-8.42,10.41-.8,1.34-2.1,2.4-3.23,3.53-3.51,3.5-6.99,7.03-10.57,10.46-6.13,5.85-12.73,11.08-19.75,15.88-6.48,4.44-13.29,8.25-20.01,12.27-4.14,2.48-8.5,4.36-12.93,6.23-11.67,4.93-23.94,7.92-35.97,11.67-2.79.87-5.65,1.08-8.5,1.43-13.99,1.73-28.02,2.42-42.1,1.14-5.73-.52-11.48-.82-17.23-1.11-2.73-.14-5.44-.45-8.04-1.22-6.27-1.86-12.78-2.87-18.85-5.51-2.62-1.14-5.57-1.48-8.25-2.49-10.16-3.83-20.15-8.02-29.64-13.41-6-3.41-11.58-7.36-17.15-11.37-1.29-.93-2.47-2.04-3.61-3.15-1.61-1.57-3.22-3.08-5.25-4.13-2.31-1.2-3.99-3.17-5.54-5.21-.24-.31-.27-.97-.11-1.35.26-.62.91-.88,1.59-.74.62.13,1.27.28,1.8.6,1.08.66,2.16,1.37,3.11,2.2,3.62,3.19,7.76,5.42,12.07,7.62,7.69,3.94,15.81,6.94,23.42,11.02.84.45,1.7.94,2.61,1.21,7.66,2.26,15.25,4.83,23.02,6.59,5.74,1.3,11.5,2.81,17.45,3.03,1.59.06,3.18.38,4.77.43,4.32.13,8.64.04,12.95.27,12.28.64,24.21-1.58,36.06-4.31,6.22-1.43,12.36-3.27,18.5-5.03,1.99-.57,3.89-1.44,5.81-2.23,9.17-3.81,17.76-8.76,26.5-13.42,1.7-.91,3.32-1.91,4.77-3.19,2.4-2.12,5.04-3.9,7.7-5.69,3.03-2.04,5.87-4.42,8.52-6.95,6.13-5.85,12.39-11.58,17.99-17.97,4-4.57,7.93-9.2,11.27-14.28,2.28-3.47,4.09-7.23,6.29-10.75,2.37-3.8,4.84-7.54,6.05-11.92.21-.76.55-1.51.94-2.2,3.22-5.79,4.96-12.09,6.69-18.43.97-3.53,2.27-6.98,3.43-10.46,2.44-7.36,3.52-14.94,4.18-22.58,1.11-12.92,1.11-25.85-.52-38.76-.52-4.13-.95-8.24-1.92-12.3-.83-3.45.14-5.09,3.46-6.34,2.09-.79,4.26-1.35,6.41-1.98,9.21-2.67,18.45-5.25,27.91-6.89,4.7-.81,6.63.52,8.03,5.28,2.13,7.25,3.15,14.69,3.58,22.2.31,5.43.32,10.87.46,16.31Z"/>
  <path class="c" d="m1004.39,1432.77c0,26.05,0,52.11,0,78.16,0,1.6.05,3.2-.06,4.79-.23,3.17-1.95,4.83-5.2,5.11-.79.07-1.6.04-2.4.04-12.95,0-25.89,0-38.84,0-.8,0-1.6.03-2.4-.05-2.98-.28-4.68-1.93-4.94-4.84-.11-1.27-.06-2.56-.06-3.83,0-52.59,0-105.17,0-157.76,0-1.6-.07-3.22.15-4.79.38-2.65,1.78-3.83,4.51-4.06,1.11-.09,2.24-.06,3.35-.06,12.63,0,25.25,0,37.88,0,.96,0,1.92-.04,2.88.05,3.17.29,4.85,2.01,5.06,5.25.1,1.59.05,3.2.05,4.79,0,25.73,0,51.47,0,77.2Z"/>
  <path class="b" d="m777.04,788.62c2.62-.65,4.26.18,5.84.84,3.54,1.48,7.03,3.07,10.45,4.79,2.05,1.03,4.12,1.57,6.4,1.75,4.46.33,8.89.95,13.35,1.31,2.86.23,5.76.41,8.62.23,4.94-.31,9.86-.91,14.78-1.43,3.21-.34,6.18-1.44,9.16-2.68,5.02-2.07,9.85-4.55,14.93-6.49,4.2-1.61,7.55-4.75,10.99-7.59,1.97-1.62,3.67-3.57,5.61-5.24,6.39-5.53,11.4-12.29,15.13-19.67,4.07-8.07,7.56-16.54,8.76-25.72,1.23-9.41,1.38-18.78.08-28.19-.65-4.7.62-6.42,5.24-7.48,3.74-.86,7.52-1.55,11.11-2.96,3.48-1.37,7.21.74,7.82,4.62,1.28,8.1,1.82,16.19,1.15,24.36-.24,2.87-.53,5.73-.92,8.58-.8,5.93-3.19,11.36-5.38,16.85-.53,1.34-1.28,2.6-1.67,3.98-1.75,6.25-5.55,11.5-8.32,17.24-.14.29-.29.58-.49.82-3.95,4.6-7.76,9.34-11.92,13.73-4.4,4.65-9.98,7.94-14.87,12.05-3.01,2.53-6.54,3.92-10.22,5.07-1.83.57-3.72,1.03-5.43,1.86-7.31,3.54-15.09,5.12-23.09,5.94-.95.1-1.92.16-2.85.39-6.78,1.73-13.58,1.45-20.47.59-5.89-.74-11.64-2-17.42-3.24-1.25-.27-2.55-.49-3.69-1.04-5.18-2.48-10.53-4.58-15.79-6.86-2.78-1.2-4.74-3.6-6.91-6.41Z"/>
  <path class="b" d="m732.06,697.5c-.22-4.97.16-9.88,1.39-14.73.86-3.4,1.34-6.89,2.02-10.34,1.16-5.89,4.11-11.05,6.65-16.38,2.62-5.49,5.78-10.67,8.97-15.84.86-1.39,1.95-2.52,3.08-3.65,3.85-3.84,7.65-7.73,11.58-11.49,3.83-3.67,8.37-6.44,12.95-8.99,5.15-2.87,10.58-5.28,16.01-7.6,4.87-2.08,10.08-3.07,15.31-3.85,4.42-.66,8.84-1.37,13.29-1.76,3.17-.28,6.41-.36,9.57-.04,7.79.78,15.48,2.21,23.11,4.01,4.9,1.16,9.27,3.42,13.36,6.3,1.82,1.28,3.52,2.71,5.86,3.1,1.64.27,2.85,1.4,3.64,2.87.13.24.14.67,0,.89-.14.22-.54.41-.81.39-1.62-.1-3.19-.54-4.49-1.47-3.65-2.61-7.95-3.3-12.17-4.04-5.97-1.05-12-1.82-18.01-2.61-3.02-.4-6.08-.39-9.09.07-5.21.79-10.4,1.68-15.6,2.55-8.48,1.41-15.99,5.43-23.73,8.83-.29.13-.59.28-.82.5-5.26,5.13-11.76,8.84-16.57,14.48-2.79,3.28-5.95,6.33-8.26,9.93-3.36,5.23-6.19,10.83-7.91,16.87-1.31,4.61-2.44,9.27-3.68,13.9-.87,3.25-1.45,6.54-1.58,9.91-.25,6.72-.1,13.42,1.15,20.06.63,3.38-.16,4.72-3.22,5.96-1.03.42-2.13.66-3.21.95-2.78.74-5.56,1.46-8.34,2.19-.77.2-1.53.49-2.31.6-3.13.44-4.93-.52-5.85-3.6-1.09-3.66-2.14-7.38-2.28-11.24-.08-2.23-.01-4.48-.01-6.71Z"/>
  <path class="c" d="m946.1,1289.77c-.1-10.13,4.11-18.21,11.86-24.5,1.46-1.18,3.29-1.93,5.01-2.74,7.17-3.38,14.59-4.5,22.33-2.22,3.56,1.05,6.83,2.57,9.7,5.01,5.46,4.63,10.09,9.82,11.73,17.03,2.46,10.82.5,20.47-7.28,28.82-5.25,5.64-11.49,9.1-19.07,9.98-8.67,1.01-16.47-1.31-23.02-7.13-2.72-2.42-5.51-4.87-7.28-8.19-2.68-5.02-4.22-10.32-3.98-16.06Z"/>
  <path class="b" d="m566.21,912.01c.31,0,.66-.1.9.02.88.43,1.54,1.12,1.9,2.03.09.23-.02.65-.19.83-.17.19-.62.35-.81.25-1.01-.5-1.89-1.19-2.14-2.37-.05-.23.23-.53.34-.77Z"/>
</svg>